<svg width="16" height="16" viewBox="0 0 16 16" fill="none" xmlns="http://www.w3.org/2000/svg">
<g id="Chat">
<path id="Stroke 4" fill-rule="evenodd" clip-rule="evenodd" d="M12.0826 12.9654C9.94308 14.8956 6.90748 15.18 4.50056 13.9128C4.14411 13.7475 3.85179 13.6137 3.56809 13.5991C2.77764 13.5631 1.75461 14.2786 1.26971 13.7417C0.784841 13.2042 1.60232 12.2593 1.64326 11.4643C1.65787 11.1806 1.55922 10.8816 1.43146 10.5094C0.417594 7.98539 1.01307 4.99409 3.15256 3.06458C5.88382 0.599931 10.1038 0.817244 12.5675 3.54874C15.0356 6.28516 14.8138 10.5014 12.0826 12.9654Z" stroke="#94A3B8" stroke-width="1.5" stroke-linecap="round" stroke-linejoin="round"/>
<path id="Stroke 11" d="M10.2256 8.42597L10.2316 8.42628" stroke="#94A3B8" stroke-width="2" stroke-linecap="round" stroke-linejoin="round"/>
<path id="Stroke 13" d="M7.5565 8.28852L7.56249 8.28883" stroke="#94A3B8" stroke-width="2" stroke-linecap="round" stroke-linejoin="round"/>
<path id="Stroke 15" d="M4.88737 8.15107L4.89336 8.15138" stroke="#94A3B8" stroke-width="2" stroke-linecap="round" stroke-linejoin="round"/>
</g>
</svg>
